<svg height="512" viewBox="0 0 64 64" width="512" xmlns="http://www.w3.org/2000/svg"><path d="m32 49-15-6v16a2.006 2.006 0 0 0 2 2h26a2.006 2.006 0 0 0 2-2v-16z" fill="#006df0"/><path d="m20 57v-12.8l-3-1.2v16a2.006 2.006 0 0 0 2 2h26a2.006 2.006 0 0 0 2-2h-25a2.006 2.006 0 0 1 -2-2z" fill="#005ece"/><path d="m7 39 10 4 15 6 15-6 10-4-25-10z" fill="#006df0"/><circle cx="57" cy="49" fill="#ff5023" r="2"/><path d="m61 57-4-6-4 6z" fill="#d80027"/><path d="m32 3a10 10 0 0 0 -2.58 19.66l2.58 2.58 2.58-2.58a10 10 0 0 0 -2.58-19.66z" fill="#ff9811"/><path d="m28 17a1 1 0 0 1 -.707-.293l-3-3a1 1 0 0 1 0-1.414l3-3a1 1 0 0 1 1.414 1.414l-2.293 2.293 2.293 2.293a1 1 0 0 1 -.707 1.707z"/><path d="m36 17a1 1 0 0 1 -.707-1.707l2.293-2.293-2.293-2.293a1 1 0 0 1 1.414-1.414l3 3a1 1 0 0 1 0 1.414l-3 3a1 1 0 0 1 -.707.293z"/><path d="m31 18a.976.976 0 0 1 -.244-.03 1 1 0 0 1 -.727-1.213l2-8a1 1 0 0 1 1.94.486l-2 8a1 1 0 0 1 -.969.757z"/><path d="m32 26.24a.993.993 0 0 1 -.707-.293l-2.393-2.394a11 11 0 1 1 6.2 0l-2.395 2.394a.993.993 0 0 1 -.705.293zm0-22.24a9 9 0 0 0 -2.324 17.693 1 1 0 0 1 .451.26l1.873 1.873 1.873-1.873a1 1 0 0 1 .451-.26 9 9 0 0 0 -2.324-17.693z"/><path d="m61.832 56.445-3.266-4.9a2.981 2.981 0 0 0 -.566-5.361v-7.184a1 1 0 0 0 -.628-.929l-25-10a1.017 1.017 0 0 0 -.744 0l-25 10a1 1 0 0 0 0 1.858l9.372 3.748v15.323a3 3 0 0 0 3 3h26a3 3 0 0 0 3-3v-15.323l8-3.2v5.707a2.981 2.981 0 0 0 -.566 5.363l-3.266 4.9a1 1 0 0 0 .832 1.553h8a1 1 0 0 0 .832-1.555zm-15.832 2.555a1 1 0 0 1 -1 1h-26a1 1 0 0 1 -1-1v-14.523l13.628 5.452a1.01 1.01 0 0 0 .744 0l13.628-5.452zm.611-16.921-14.611 5.844-14.611-5.844-7.697-3.079 22.308-8.923 22.308 8.923zm10.389 5.921a1 1 0 1 1 -1 1 1 1 0 0 1 1-1zm-2.131 8 2.131-3.2 2.131 3.2z"/><path d="m20 57a1 1 0 0 0 1 1h22a1 1 0 0 0 0-2h-22a1 1 0 0 0 -1 1z"/><path d="m54 19h2v2h-2z"/><path d="m56 17h2v2h-2z"/><path d="m52 17h2v2h-2z"/><path d="m54 15h2v2h-2z"/><path d="m45 27h2v2h-2z"/><path d="m47 25h2v2h-2z"/><path d="m43 25h2v2h-2z"/><path d="m45 23h2v2h-2z"/><path d="m8 19h2v2h-2z"/><path d="m6 17h2v2h-2z"/><path d="m10 17h2v2h-2z"/><path d="m8 15h2v2h-2z"/><path d="m17 27h2v2h-2z"/><path d="m15 25h2v2h-2z"/><path d="m19 25h2v2h-2z"/><path d="m17 23h2v2h-2z"/></svg>